<svg xmlns="http://www.w3.org/2000/svg" width="200" height="200" viewBox="0 0 200 200">
  <defs>
    <linearGradient id="bowlGrad"><stop offset="0%" stop-color="#FFF9F2"/><stop offset="100%" stop-color="#F0E0C8"/></linearGradient>
  </defs>
  <!-- mixing bowl outer --><path d="M30 100c0 35 28 65 70 65s70-30 70-65" fill="url(#bowlGrad)" stroke="#5C3D2E" stroke-width="3"/>
  <!-- bowl rim --><ellipse cx="100" cy="100" rx="70" ry="14" fill="#FAF5EB" stroke="#5C3D2E" stroke-width="2.5"/>
  <!-- bowl inner --><ellipse cx="100" cy="100" rx="62" ry="10" fill="#FDF3E2"/>
  <!-- dough inside bowl --><path d="M42 100c0-14 24-24 58-24s58 10 58 24" fill="#E8D5B8"/><path d="M44 100c2-10 20-18 50-18" fill="none" stroke="#DCC5A0" stroke-width="2" opacity="0.5"/>
  <!-- spatula handle --><line x1="140" y1="20" x2="82" y2="82" stroke="#8B6F5C" stroke-width="6" stroke-linecap="round"/><rect x="135" y="6" width="12" height="30" rx="5" fill="#5C3D2E"/>
  <!-- spatula head --><path d="M76 82l-12 16c-4 5-3 12 2 14l4 2c5 2 11-1 13-6l10-16" fill="#C8853E" stroke="#A8612E" stroke-width="1.5"/>
  <!-- dough being lifted/folded --><path d="M70 90c-15 8-22 22-18 38" fill="none" stroke="#D4954B" stroke-width="6" stroke-linecap="round"/><path d="M74 88c-12 6-18 18-14 30" fill="none" stroke="#E8A850" stroke-width="4" stroke-linecap="round" opacity="0.5"/>
  <!-- dough fold texture --><path d="M68 95c-8 5-12 14-10 22" fill="none" stroke="#C8853E" stroke-width="2.5" stroke-linecap="round"/>
  <!-- flour dust particles --><circle cx="120" cy="60" r="2.5" fill="#FFF9F2" opacity="0.7"/><circle cx="145" cy="50" r="1.8" fill="#FFF9F2" opacity="0.5"/><circle cx="130" cy="42" r="1.5" fill="#FFF9F2" opacity="0.6"/><circle cx="110" cy="55" r="1.2" fill="#FFF9F2" opacity="0.4"/><circle cx="155" cy="65" r="2" fill="#FFF9F2" opacity="0.45"/>
  <!-- small butter pat on counter --><rect x="155" y="120" width="30" height="20" rx="3" fill="#F5E6C8" stroke="#D4B896" stroke-width="1"/><text x="170" y="133" text-anchor="middle" font-size="7" font-weight="700" fill="#C8853E" font-family="Inter,sans-serif">BUTTER</text>
</svg>
