<svg xmlns="http://www.w3.org/2000/svg" width="200" height="200" viewBox="0 0 200 200">
  <defs>
    <radialGradient id="lensGlow"><stop offset="0%" stop-color="#C8E0F0" stop-opacity="0.4"/><stop offset="100%" stop-color="#C8E0F0" stop-opacity="0.05"/></radialGradient>
  </defs>
  <!-- clipboard --><rect x="45" y="38" width="100" height="130" rx="8" fill="#FFF9F2" stroke="#5C3D2E" stroke-width="2.5"/>
  <!-- clipboard clip --><rect x="75" y="34" width="40" height="12" rx="4" fill="#A0A0A0" stroke="#888" stroke-width="1.5"/><circle cx="86" cy="40" r="2.5" fill="#666"/><circle cx="96" cy="40" r="2.5" fill="#666"/>
  <!-- clipboard paper lines --><line x1="60" y1="60" x2="130" y2="60" stroke="#E0D8C8" stroke-width="1.5"/><line x1="60" y1="72" x2="130" y2="72" stroke="#E0D8C8" stroke-width="1.5"/><line x1="60" y1="84" x2="120" y2="84" stroke="#E0D8C8" stroke-width="1.5"/>
  <!-- green checkmark on clipboard --><circle cx="100" cy="108" r="20" fill="#5B8C5A" opacity="0.15"/><path d="M85 108l10 10 22-22" fill="none" stroke="#5B8C5A" stroke-width="4" stroke-linecap="round" stroke-linejoin="round"/>
  <!-- magnifying glass --><circle cx="130" cy="145" r="22" fill="url(#lensGlow)" stroke="#5C3D2E" stroke-width="3"/><circle cx="130" cy="145" r="18" fill="none" stroke="#C8853E" stroke-width="0.8" opacity="0.3"/>
  <!-- magnifying glass handle --><line x1="115" y1="162" x2="98" y2="182" stroke="#5C3D2E" stroke-width="6" stroke-linecap="round"/>
  <!-- cookie inside magnifying glass --><circle cx="132" cy="146" r="10" fill="#C8853E"/><ellipse cx="129" cy="144" rx="2" ry="2.8" fill="#3C1D0E" transform="rotate(-10 129 144)"/><ellipse cx="135" cy="142" rx="1.8" ry="2.5" fill="#3C1D0E" transform="rotate(15 135 142)"/><ellipse cx="131" cy="149" rx="1.5" ry="2.2" fill="#3C1D0E" transform="rotate(5 131 149)"/>
  <!-- cookie on clipboard for inspection --><circle cx="78" cy="92" r="10" fill="#D4954B"/><ellipse cx="75" cy="90" rx="2" ry="2.5" fill="#3C1D0E" transform="rotate(-10 75 90)"/><ellipse cx="81" cy="89" rx="1.5" ry="2.2" fill="#3C1D0E" transform="rotate(15 81 89)"/>
  <!-- ruler on side --><rect x="150" y="38" width="8" height="80" rx="2" fill="#F5E6C8" stroke="#C8853E" stroke-width="1"/><line x1="154" y1="48" x2="157" y2="48" stroke="#C8853E" stroke-width="0.8"/><line x1="152" y1="58" x2="157" y2="58" stroke="#C8853E" stroke-width="0.8"/><line x1="154" y1="68" x2="157" y2="68" stroke="#C8853E" stroke-width="0.8"/><line x1="152" y1="78" x2="157" y2="78" stroke="#C8853E" stroke-width="0.8"/><line x1="154" y1="88" x2="157" y2="88" stroke="#C8853E" stroke-width="0.8"/>
</svg>
