<svg xmlns="http://www.w3.org/2000/svg" width="200" height="200" viewBox="0 0 200 200">
  <defs>
    <radialGradient id="sc"><stop offset="0%" stop-color="#F0D080"/><stop offset="55%" stop-color="#DCB048"/><stop offset="100%" stop-color="#C09830"/></radialGradient>
  </defs>
  <ellipse cx="100" cy="175" rx="55" ry="10" fill="#00000015"/>
  <circle cx="100" cy="100" r="65" fill="url(#sc)"/><circle cx="100" cy="100" r="65" fill="none" stroke="#D0A840" stroke-width="1.5" opacity="0.4"/>
  <!-- caramel swirls --><path d="M55 85c10-5 20 0 25 10" fill="none" stroke="#E8C870" stroke-width="3" stroke-linecap="round" opacity="0.7"/>
  <path d="M70 130c12-3 18 2 22 8" fill="none" stroke="#E8C870" stroke-width="2.5" stroke-linecap="round" opacity="0.6"/>
  <path d="M120 75c8-3 15 0 18 6" fill="none" stroke="#E8C870" stroke-width="2.5" stroke-linecap="round" opacity="0.6"/>
  <!-- salt flakes --><rect x="68" cy="80" width="5" height="2.5" rx="0.5" fill="#FFFEF9" transform="rotate(-10 70 81)"/>
  <rect x="125" y="72" width="4.5" height="2" rx="0.5" fill="#FFFEF9" transform="rotate(25 127 73)"/>
  <rect x="85" y="130" width="5" height="2.5" rx="0.5" fill="#FFFEF9" transform="rotate(-5 87 131)"/>
  <rect x="115" y="120" width="4" height="2" rx="0.5" fill="#FFFEF9" transform="rotate(15 117 121)"/>
  <rect x="62" y="110" width="3.5" height="2" rx="0.5" fill="#FFFEF9" transform="rotate(-20 63 111)"/>
  <rect x="105" y="78" width="4" height="2" rx="0.5" fill="#FFFEF9" transform="rotate(8 107 79)"/>
  <rect x="95" y="115" width="3" height="1.8" rx="0.5" fill="#FFFEF9" transform="rotate(-12 96 116)"/>
</svg>
