<svg xmlns="http://www.w3.org/2000/svg" width="200" height="200" viewBox="0 0 200 200">
  <defs>
    <radialGradient id="ac"><stop offset="0%" stop-color="#F8E0C0"/><stop offset="55%" stop-color="#F0D0A0"/><stop offset="100%" stop-color="#E8C080"/></radialGradient>
  </defs>
  <ellipse cx="100" cy="175" rx="55" ry="10" fill="#00000015"/>
  <circle cx="100" cy="100" r="65" fill="url(#ac)"/>
  <circle cx="100" cy="100" r="65" fill="none" stroke="#E8C080" stroke-width="1.5" opacity="0.3"/>
  <rect x="68" y="78" width="4" height="2" rx="1" fill="#F0A868" transform="rotate(0 70.0 79)" opacity="0.7"/><rect x="82" y="94" width="4" height="2" rx="1" fill="#F0A868" transform="rotate(30 84.0 95)" opacity="0.7"/><rect x="96" y="110" width="4" height="2" rx="1" fill="#F0A868" transform="rotate(60 98.0 111)" opacity="0.7"/><rect x="110" y="78" width="4" height="2" rx="1" fill="#F0A868" transform="rotate(90 112.0 79)" opacity="0.7"/><rect x="124" y="94" width="4" height="2" rx="1" fill="#F0A868" transform="rotate(120 126.0 95)" opacity="0.7"/><circle cx="70" cy="90" r="4" fill="#F0A868" opacity="0.6"/><circle cx="90" cy="100" r="4" fill="#F0A868" opacity="0.6"/><circle cx="110" cy="110" r="4" fill="#F0A868" opacity="0.6"/><circle cx="100" cy="100" r="62" fill="none" stroke="#E8C080" stroke-width="0.4" opacity="0.2" stroke-dasharray="2 6"/>
</svg>