<svg xmlns="http://www.w3.org/2000/svg" width="200" height="200" viewBox="0 0 200 200">
  <defs>
    <radialGradient id="dc"><stop offset="0%" stop-color="#6B3A24"/><stop offset="55%" stop-color="#4A2010"/><stop offset="100%" stop-color="#2E1208"/></radialGradient>
  </defs>
  <ellipse cx="100" cy="175" rx="55" ry="10" fill="#00000015"/>
  <circle cx="100" cy="100" r="65" fill="url(#dc)"/><circle cx="100" cy="100" r="65" fill="none" stroke="#3A1808" stroke-width="1.5" opacity="0.4"/>
  <!-- darker chips --><ellipse cx="72" cy="78" rx="7" ry="10" fill="#1A0A04" transform="rotate(-15 72 78)"/>
  <ellipse cx="130" cy="72" rx="6" ry="9" fill="#1A0A04" transform="rotate(20 130 72)"/>
  <ellipse cx="90" cy="130" rx="8" ry="10.5" fill="#1A0A04" transform="rotate(-8 90 130)"/>
  <ellipse cx="125" cy="120" rx="6.5" ry="9" fill="#1A0A04" transform="rotate(15 125 120)"/>
  <ellipse cx="65" cy="108" rx="5.5" ry="7.5" fill="#1A0A04" transform="rotate(-20 65 108)"/>
  <ellipse cx="138" cy="98" rx="5" ry="7" fill="#1A0A04" transform="rotate(25 138 98)"/>
  <ellipse cx="100" cy="80" rx="4" ry="6" fill="#1A0A04" transform="rotate(5 100 80)"/>
</svg>
