<svg xmlns="http://www.w3.org/2000/svg" width="200" height="200" viewBox="0 0 200 200">
  <!-- wire rack frame --><rect x="30" y="80" width="140" height="10" rx="5" fill="#A0A0A0" stroke="#888" stroke-width="1.5"/>
  <!-- wire rack cross bars --><line x1="40" y1="80" x2="40" y2="90" stroke="#A0A0A0" stroke-width="2.5"/><line x1="65" y1="80" x2="65" y2="90" stroke="#A0A0A0" stroke-width="2.5"/><line x1="90" y1="80" x2="90" y2="90" stroke="#A0A0A0" stroke-width="2.5"/><line x1="115" y1="80" x2="115" y2="90" stroke="#A0A0A0" stroke-width="2.5"/><line x1="140" y1="80" x2="140" y2="90" stroke="#A0A0A0" stroke-width="2.5"/><line x1="160" y1="80" x2="160" y2="90" stroke="#A0A0A0" stroke-width="2.5"/>
  <!-- wire rack feet --><rect x="36" y="90" width="6" height="20" rx="3" fill="#888"/><rect x="158" y="90" width="6" height="20" rx="3" fill="#888"/>
  <!-- cookies on rack --><circle cx="55" cy="76" r="18" fill="#D4954B"/><ellipse cx="50" cy="72" rx="3.5" ry="5" fill="#3C1D0E" transform="rotate(-15 50 72)"/><ellipse cx="58" cy="70" rx="3" ry="4.5" fill="#3C1D0E" transform="rotate(20 58 70)"/><ellipse cx="53" cy="80" rx="3" ry="4" fill="#3C1D0E" transform="rotate(5 53 80)"/>
  <circle cx="100" cy="74" r="20" fill="#C8853E"/><ellipse cx="95" cy="70" rx="4" ry="5.5" fill="#3C1D0E" transform="rotate(-10 95 70)"/><ellipse cx="104" cy="68" rx="3.5" ry="5" fill="#3C1D0E" transform="rotate(15 104 68)"/><ellipse cx="98" cy="78" rx="3.5" ry="4.5" fill="#3C1D0E" transform="rotate(-5 98 78)"/><ellipse cx="106" cy="76" rx="3" ry="4" fill="#3C1D0E" transform="rotate(25 106 76)"/>
  <circle cx="145" cy="76" r="18" fill="#D4954B"/><ellipse cx="140" cy="72" rx="3.5" ry="5" fill="#3C1D0E" transform="rotate(-20 140 72)"/><ellipse cx="148" cy="70" rx="3" ry="4.5" fill="#3C1D0E" transform="rotate(10 148 70)"/><ellipse cx="143" cy="80" rx="3" ry="4" fill="#3C1D0E" transform="rotate(-5 143 80)"/>
  <!-- steam wisps rising from cookies --><path d="M55 52c-1-8 2-16 4-22" fill="none" stroke="#C8853E" stroke-width="2" stroke-linecap="round" opacity="0.5"/><path d="M100 48c0-8 2-16 3-22" fill="none" stroke="#C8853E" stroke-width="2.5" stroke-linecap="round" opacity="0.6"/><path d="M145 52c1-8-2-16-4-22" fill="none" stroke="#C8853E" stroke-width="2" stroke-linecap="round" opacity="0.5"/>
  <!-- steam wisps wider --><path d="M52 48c-3-6-6-12-7-16" fill="none" stroke="#E8A850" stroke-width="1.5" stroke-linecap="round" opacity="0.35"/><path d="M148 48c3-6 6-12 7-16" fill="none" stroke="#E8A850" stroke-width="1.5" stroke-linecap="round" opacity="0.35"/>
  <!-- small cooling fan in bg --><circle cx="170" cy="50" r="15" fill="none" stroke="#C0C0C0" stroke-width="1.5" opacity="0.4"/><path d="M170 38c-4 3-6 8-6 12s2 9 6 12" fill="none" stroke="#C0C0C0" stroke-width="1.5" opacity="0.3"/>
</svg>
