<svg xmlns="http://www.w3.org/2000/svg" width="200" height="200" viewBox="0 0 200 200">
  <circle cx="100" cy="100" r="86" fill="#FFF9F2" stroke="#E8DCC8" stroke-width="1.5"/>
  <!-- Mug body --><path d="M74 98c0-14 10-26 26-26s26 12 26 26v36c0 5-4 9-9 9H83c-5 0-9-4-9-9z" fill="none" stroke="#5C3D2E" stroke-width="2.5"/>
  <!-- Coffee surface --><ellipse cx="100" cy="98" rx="24" ry="5" fill="none" stroke="#5C3D2E" stroke-width="2"/>
  <!-- Handle --><path d="M126 110c9 0 14-4 14-8s-5-8-14-8" fill="none" stroke="#5C3D2E" stroke-width="2.5" stroke-linecap="round"/>
  <!-- Saucer --><ellipse cx="100" cy="164" rx="34" ry="6" fill="none" stroke="#C8853E" stroke-width="1.5" opacity="0.4"/>
  <!-- Steam --><path d="M88 84c-1-7 1-12 3-16" fill="none" stroke="#C8853E" stroke-width="1.2" stroke-linecap="round" opacity="0.45"/>
  <path d="M100 76c0-5 1-10 2-14" fill="none" stroke="#C8853E" stroke-width="1.2" stroke-linecap="round" opacity="0.4"/>
  <path d="M112 84c1-7-1-12-3-16" fill="none" stroke="#C8853E" stroke-width="1.2" stroke-linecap="round" opacity="0.45"/>
  <!-- Cookie --><circle cx="58" cy="112" r="20" fill="none" stroke="#C8853E" stroke-width="2.5"/>
  <circle cx="58" cy="110" r="2.5" fill="#5C3D2E"/>
  <circle cx="62" cy="114" r="2" fill="#5C3D2E"/>
  <circle cx="54" cy="115" r="2.5" fill="#5C3D2E"/>
  <!-- Cookie bite --><circle cx="42" cy="112" r="5.5" fill="#FFF9F2"/>
</svg>