<svg xmlns="http://www.w3.org/2000/svg" width="200" height="200" viewBox="0 0 200 200">
  <circle cx="100" cy="100" r="86" fill="#FFF9F2" stroke="#E8DCC8" stroke-width="1.5"/>
  <path d="M74 98c0-14 10-26 26-26s26 12 26 26v36c0 5-4 9-9 9H83c-5 0-9-4-9-9z" fill="none" stroke="#5C3D2E" stroke-width="2.5"/>
  <ellipse cx="100" cy="98" rx="24" ry="5" fill="none" stroke="#5C3D2E" stroke-width="2"/>
  <path d="M126 112c9 0 14-4 14-8s-5-8-14-8" fill="none" stroke="#5C3D2E" stroke-width="2.5" stroke-linecap="round"/>
  <ellipse cx="100" cy="164" rx="34" ry="6" fill="none" stroke="#C8853E" stroke-width="1.5" opacity="0.35"/>
  <path d="M88 84c-1-7 1-12 3-16" fill="none" stroke="#E8A850" stroke-width="1.5" stroke-linecap="round" opacity="0.5"/>
  <path d="M100 76c0-6 1-11 2-14" fill="none" stroke="#E8A850" stroke-width="1.5" stroke-linecap="round" opacity="0.45"/>
  <path d="M112 84c1-7-1-12-3-16" fill="none" stroke="#E8A850" stroke-width="1.5" stroke-linecap="round" opacity="0.5"/>
  <circle cx="56" cy="112" r="20" fill="none" stroke="#C8853E" stroke-width="2.5"/>
  <circle cx="56" cy="110" r="2.5" fill="#5C3D2E"/><circle cx="60" cy="114" r="2" fill="#5C3D2E"/><circle cx="52" cy="115" r="2.5" fill="#5C3D2E"/>
  <circle cx="40" cy="112" r="5.5" fill="#FFF9F2"/>
</svg>