<svg xmlns="http://www.w3.org/2000/svg" width="200" height="200" viewBox="0 0 200 200">
  <circle cx="100" cy="100" r="88" fill="#FFF9F2" stroke="#E8DCC8" stroke-width="1.5"/>
  <path d="M74 100c0-14 10-26 24-26s26 12 26 26v36c0 5-4 8-8 8H82c-5 0-8-3-8-8z" fill="none" stroke="#5C3D2E" stroke-width="2.5"/>
  <ellipse cx="100" cy="100" rx="24" ry="5" fill="none" stroke="#5C3D2E" stroke-width="2"/>
  <path d="M124 112c8 0 14-4 14-8s-6-8-14-8" fill="none" stroke="#5C3D2E" stroke-width="2.5" stroke-linecap="round"/>
  <ellipse cx="100" cy="164" rx="34" ry="6" fill="none" stroke="#C8853E" stroke-width="1.5" opacity="0.5"/>
  <path d="M88 86c-1-8 2-14 5-19" fill="none" stroke="#C8853E" stroke-width="1.5" stroke-linecap="round" opacity="0.5"/>
  <path d="M100 78c0-6 1-12 3-16" fill="none" stroke="#C8853E" stroke-width="1.5" stroke-linecap="round" opacity="0.45"/>
  <path d="M112 86c1-8-2-14-5-19" fill="none" stroke="#C8853E" stroke-width="1.5" stroke-linecap="round" opacity="0.5"/>
  <circle cx="58" cy="110" r="22" fill="none" stroke="#C8853E" stroke-width="2.5"/>
  <circle cx="58" cy="108" r="2.5" fill="#5C3D2E"/>
  <circle cx="62" cy="112" r="2.2" fill="#5C3D2E"/>
  <circle cx="55" cy="113" r="2.5" fill="#5C3D2E"/>
  <circle cx="42" cy="110" r="6" fill="#FFF9F2"/>
  <circle cx="43" cy="116" r="1" fill="#C8853E" opacity="0.5"/>
</svg>