<svg xmlns="http://www.w3.org/2000/svg" width="200" height="200" viewBox="0 0 200 200">
  <defs>
    <radialGradient id="glow"><stop offset="0%" stop-color="#E8A850" stop-opacity="0.9"/><stop offset="50%" stop-color="#F5D5A0" stop-opacity="0.3"/><stop offset="100%" stop-color="#FFF9F2" stop-opacity="0"/></radialGradient>
    <radialGradient id="cookie"><stop offset="0%" stop-color="#E8B860"/><stop offset="60%" stop-color="#C8843C"/><stop offset="100%" stop-color="#A86828"/></radialGradient>
    <linearGradient id="wood"><stop offset="0%" stop-color="#6B3A20"/><stop offset="100%" stop-color="#4A2510"/></linearGradient>
    <linearGradient id="metal"><stop offset="0%" stop-color="#D8D0C0"/><stop offset="100%" stop-color="#B0A898"/></linearGradient>
    <radialGradient id="warm"><stop offset="0%" stop-color="#FDF3E2" stop-opacity="0.6"/><stop offset="100%" stop-color="#FFF9F2" stop-opacity="0"/></radialGradient>
  </defs>
  <rect x="0" y="0" width="200" height="200" rx="100" fill="#FFF9F2"/>
  <rect x="0" y="0" width="200" height="108" rx="20" fill="#FDF3E2" opacity="0.4"/>
  <circle cx="100" cy="62" r="50" fill="url(#glow)"/>
  <circle cx="100" cy="58" r="20" fill="#E8A850"/><circle cx="100" cy="58" r="20" fill="none" stroke="#D4954B" stroke-width="0.8" opacity="0.4"/>
  <line x1="100" y1="30" x2="100" y2="22" stroke="#E8A850" stroke-width="2.5" stroke-linecap="round"/>
  <line x1="118" y1="38" x2="124" y2="34" stroke="#E8A850" stroke-width="2" stroke-linecap="round"/>
  <line x1="82" y1="38" x2="76" y2="34" stroke="#E8A850" stroke-width="2" stroke-linecap="round"/>
  <line x1="128" y1="58" x2="134" y2="58" stroke="#E8A850" stroke-width="1.5" stroke-linecap="round"/>
  <line x1="66" y1="58" x2="72" y2="58" stroke="#E8A850" stroke-width="1.5" stroke-linecap="round"/>
  <rect x="18" y="118" width="164" height="14" rx="4" fill="url(#wood)"/>
  <rect x="18" y="118" width="164" height="3" rx="1.5" fill="#8B6F5C" opacity="0.35"/>
  <rect x="36" y="132" width="6" height="46" rx="3" fill="#5C3D2E"/><rect x="158" y="132" width="6" height="46" rx="3" fill="#5C3D2E"/>
  <rect x="100" y="106" width="50" height="8" rx="4" fill="#D4B896"/><rect x="102" y="107" width="46" height="5" rx="2.5" fill="#E8D5B8"/>
  <rect x="96" y="106" width="6" height="8" rx="3" fill="#A8855C"/><rect x="148" y="106" width="6" height="8" rx="3" fill="#A8855C"/>
  <rect x="44" y="98" width="38" height="16" rx="3" fill="url(#metal)"/><rect x="44" y="98" width="38" height="5" rx="2" fill="#D4954B" opacity="0.4"/>
  <ellipse cx="54" cy="105" rx="5" ry="3.5" fill="#E8D5B8"/><ellipse cx="65" cy="104" rx="4.5" ry="3" fill="#DCC5A0"/><ellipse cx="75" cy="105" rx="5" ry="3.5" fill="#E8D5B8"/>
  <rect x="140" y="100" width="20" height="14" rx="4" fill="#FFF9F2"/><path d="M160 104c3 0 5 2 5 4s-2 4-5 4" fill="none" stroke="#FFF9F2" stroke-width="2.5"/>
  <ellipse cx="150" cy="100" rx="10" ry="2.8" fill="#C8853E" opacity="0.2"/>
  <path d="M146 94c1-4 3-7 4-9" fill="none" stroke="#C8853E" stroke-width="1.2" stroke-linecap="round" opacity="0.45"/>
  <path d="M152 93c0-3 1-5 2-7" fill="none" stroke="#C8853E" stroke-width="1.2" stroke-linecap="round" opacity="0.35"/>
  <circle cx="36" cy="40" r="16" fill="#FFF9F2" stroke="#5C3D2E" stroke-width="1.8"/>
  <line x1="36" y1="40" x2="36" y2="30" stroke="#5C3D2E" stroke-width="1.8" stroke-linecap="round"/>
  <line x1="36" y1="40" x2="43" y2="43" stroke="#5C3D2E" stroke-width="1.8" stroke-linecap="round"/>
  <text x="36" y="47" text-anchor="middle" font-size="5.5" font-weight="800" fill="#C8853E" font-family="Inter,sans-serif">4:30</text>
</svg>