<svg xmlns="http://www.w3.org/2000/svg" width="200" height="200" viewBox="0 0 200 200">
  <circle cx="100" cy="100" r="88" fill="#FFF9F2" stroke="#E8DCC8" stroke-width="1.5"/>
  <circle cx="100" cy="58" r="20" fill="none" stroke="#E8A850" stroke-width="2.5" stroke-linecap="round"/>
  <line x1="100" y1="30" x2="100" y2="24" stroke="#E8A850" stroke-width="2" stroke-linecap="round"/>
  <line x1="120" y1="38" x2="126" y2="33" stroke="#E8A850" stroke-width="2" stroke-linecap="round"/>
  <line x1="80" y1="38" x2="74" y2="33" stroke="#E8A850" stroke-width="2" stroke-linecap="round"/>
  <line x1="128" y1="58" x2="134" y2="58" stroke="#E8A850" stroke-width="1.5" stroke-linecap="round"/>
  <line x1="66" y1="58" x2="72" y2="58" stroke="#E8A850" stroke-width="1.5" stroke-linecap="round"/>
  <line x1="36" y1="115" x2="164" y2="115" stroke="#5C3D2E" stroke-width="2.5" stroke-linecap="round"/>
  <rect x="100" y="100" width="50" height="9" rx="4.5" fill="none" stroke="#5C3D2E" stroke-width="2" stroke-linecap="round"/>
  <rect x="96" y="101" width="6" height="7" rx="3" fill="none" stroke="#5C3D2E" stroke-width="1.5"/>
  <rect x="148" y="101" width="6" height="7" rx="3" fill="none" stroke="#5C3D2E" stroke-width="1.5"/>
  <rect x="46" y="100" width="18" height="15" rx="3" fill="none" stroke="#5C3D2E" stroke-width="2"/>
  <path d="M64 106c3 0 5 2 5 4s-2 4-5 4" fill="none" stroke="#5C3D2E" stroke-width="1.5"/>
  <path d="M52 94c1-4 2-7 3-9" fill="none" stroke="#C8853E" stroke-width="1.2" stroke-linecap="round" opacity="0.5"/>
  <path d="M58 93c0-3 1-6 1-8" fill="none" stroke="#C8853E" stroke-width="1.2" stroke-linecap="round" opacity="0.4"/>
</svg>