<svg xmlns="http://www.w3.org/2000/svg" width="200" height="200" viewBox="0 0 200 200">
  <defs>
    <clipPath id="c1"><circle cx="100" cy="100" r="84"/></clipPath>
  </defs>
  <circle cx="100" cy="100" r="86" fill="#FFF9F2" stroke="#E8DCC8" stroke-width="1.5"/>
  <!-- Sun half-risen --><path d="M76 78a24 24 0 0 1 48 0" fill="none" stroke="#E8A850" stroke-width="2.5" stroke-linecap="round"/>
  <circle cx="100" cy="74" r="14" fill="none" stroke="#E8A850" stroke-width="2"/>
  <!-- Rays --><line x1="100" y1="52" x2="100" y2="46" stroke="#E8A850" stroke-width="1.8" stroke-linecap="round"/>
  <line x1="116" y1="58" x2="122" y2="54" stroke="#E8A850" stroke-width="1.8" stroke-linecap="round"/>
  <line x1="84" y1="58" x2="78" y2="54" stroke="#E8A850" stroke-width="1.8" stroke-linecap="round"/>
  <!-- Counter --><line x1="40" y1="122" x2="160" y2="122" stroke="#5C3D2E" stroke-width="2.5" stroke-linecap="round"/>
  <!-- Rolling pin --><rect x="96" y="108" width="48" height="8" rx="4" fill="none" stroke="#5C3D2E" stroke-width="2"/>
  <rect x="142" y="108" width="5" height="8" rx="2.5" fill="none" stroke="#5C3D2E" stroke-width="1.5"/>
  <rect x="92" y="108" width="5" height="8" rx="2.5" fill="none" stroke="#5C3D2E" stroke-width="1.5"/>
  <!-- Cup --><rect x="52" y="106" width="18" height="14" rx="3" fill="none" stroke="#5C3D2E" stroke-width="2"/>
  <path d="M70 111c2.5 0 4 1.5 4 3.5s-1.5 3.5-4 3.5" fill="none" stroke="#5C3D2E" stroke-width="1.5"/>
  <!-- Steam --><path d="M56 100c0.5-3 1.5-6 2-8" fill="none" stroke="#C8853E" stroke-width="1.2" stroke-linecap="round" opacity="0.5"/>
  <path d="M62 99c0-2.5 0.5-5 1-7" fill="none" stroke="#C8853E" stroke-width="1.2" stroke-linecap="round" opacity="0.4"/>
</svg>