<svg xmlns="http://www.w3.org/2000/svg" width="200" height="200" viewBox="0 0 200 200">
  <circle cx="100" cy="100" r="86" fill="#FFF9F2" stroke="#E8DCC8" stroke-width="1.5"/>
  <circle cx="100" cy="72" r="16" fill="none" stroke="#E8A850" stroke-width="2.5" stroke-linecap="round"/>
  <path d="M84 72a16 16 0 0 1 32 0" fill="none" stroke="#E8A850" stroke-width="2" stroke-linecap="round"/>
  <line x1="100" y1="48" x2="100" y2="42" stroke="#E8A850" stroke-width="2" stroke-linecap="round"/>
  <line x1="118" y1="56" x2="124" y2="52" stroke="#E8A850" stroke-width="1.8" stroke-linecap="round"/>
  <line x1="82" y1="56" x2="76" y2="52" stroke="#E8A850" stroke-width="1.8" stroke-linecap="round"/>
  <line x1="38" y1="124" x2="162" y2="124" stroke="#5C3D2E" stroke-width="2.5" stroke-linecap="round"/>
  <rect x="98" y="110" width="46" height="8" rx="4" fill="none" stroke="#5C3D2E" stroke-width="2"/>
  <rect x="142" y="110" width="5" height="8" rx="2.5" fill="none" stroke="#5C3D2E" stroke-width="1.5"/>
  <rect x="94" y="110" width="5" height="8" rx="2.5" fill="none" stroke="#5C3D2E" stroke-width="1.5"/>
  <rect x="48" y="108" width="18" height="14" rx="3" fill="none" stroke="#5C3D2E" stroke-width="2"/>
  <path d="M66 113c3 0 5 1.5 5 3.5s-2 3.5-5 3.5" fill="none" stroke="#5C3D2E" stroke-width="1.5"/>
  <path d="M52 102c1-3 2-6 3-8" fill="none" stroke="#C8853E" stroke-width="1.2" stroke-linecap="round" opacity="0.5"/>
  <path d="M58 101c0-3 1-5 1-7" fill="none" stroke="#C8853E" stroke-width="1.2" stroke-linecap="round" opacity="0.4"/>
</svg>