<svg xmlns="http://www.w3.org/2000/svg" width="200" height="200" viewBox="0 0 200 200">
  <circle cx="100" cy="100" r="86" fill="#FFF9F2" stroke="#E8DCC8" stroke-width="1.5"/>
  <rect x="42" y="82" width="116" height="80" rx="6" fill="none" stroke="#5C3D2E" stroke-width="2.5"/>
  <path d="M42 82l28-18h60l28 18" fill="none" stroke="#5C3D2E" stroke-width="2"/>
  <rect x="58" y="72" width="56" height="6" rx="2" fill="none" stroke="#D4C4A8" stroke-width="1" opacity="0.5"/>
  <rect x="68" y="122" width="64" height="6" rx="2" fill="none" stroke="#D4C4A8" stroke-width="1" opacity="0.5"/>
  <rect x="56" y="98" width="48" height="38" rx="2" fill="none" stroke="#C8853E" stroke-width="1.5"/>
  <line x1="62" y1="106" x2="98" y2="106" stroke="#C8853E" stroke-width="0.6" opacity="0.5"/>
  <line x1="62" y1="112" x2="96" y2="112" stroke="#C8853E" stroke-width="0.5" opacity="0.4"/>
  <line x1="62" y1="118" x2="94" y2="118" stroke="#C8853E" stroke-width="0.6" opacity="0.5"/>
  <line x1="62" y1="124" x2="98" y2="124" stroke="#C8853E" stroke-width="0.5" opacity="0.4"/>
  <rect x="114" y="100" width="36" height="20" rx="3" fill="none" stroke="#E8A850" stroke-width="2"/>
  <text x="132" y="113" text-anchor="middle" font-size="6.5" font-weight="800" fill="#E8A850" font-family="Inter,sans-serif">SAME DAY</text>
  <circle cx="148" cy="150" r="14" fill="none" stroke="#5C3D2E" stroke-width="1.8"/>
  <line x1="148" y1="150" x2="148" y2="140" stroke="#5C3D2E" stroke-width="2" stroke-linecap="round"/>
  <line x1="148" y1="150" x2="156" y2="152" stroke="#5C3D2E" stroke-width="2" stroke-linecap="round"/>
</svg>