<svg xmlns="http://www.w3.org/2000/svg" width="200" height="200" viewBox="0 0 200 200">
  <circle cx="100" cy="100" r="88" fill="#FFF9F2" stroke="#E8DCC8" stroke-width="1.5"/>
  <ellipse cx="100" cy="158" rx="28" ry="5" fill="none" stroke="#5C3D2E" stroke-width="2.5"/>
  <line x1="100" y1="152" x2="100" y2="92" stroke="#5C3D2E" stroke-width="2.5" stroke-linecap="round"/>
  <line x1="44" y1="92" x2="156" y2="92" stroke="#5C3D2E" stroke-width="3" stroke-linecap="round"/>
  <circle cx="100" cy="92" r="4" fill="#E8A850"/>
  <path d="M34 92l-8 20c-2 5 5 10 10 6l8-5" fill="none" stroke="#5C3D2E" stroke-width="2"/>
  <ellipse cx="40" cy="112" rx="16" ry="4.5" fill="none" stroke="#5C3D2E" stroke-width="2"/>
  <path d="M28 110c2-4 20-4 24 1" fill="#FFF9F2" stroke="#C8853E" stroke-width="1.5"/>
  <path d="M166 92l8 20c2 5-5 10-10 6l-8-5" fill="none" stroke="#5C3D2E" stroke-width="2"/>
  <ellipse cx="160" cy="112" rx="16" ry="4.5" fill="none" stroke="#5C3D2E" stroke-width="2"/>
  <rect x="150" y="103" width="18" height="12" rx="2.5" fill="none" stroke="#5C3D2E" stroke-width="2"/>
  <text x="159" y="111" text-anchor="middle" font-size="6.5" font-weight="700" fill="#C8853E" font-family="Inter,sans-serif">200g</text>
  <circle cx="24" cy="76" r="1.5" fill="#E8A850" opacity="0.5"/>
  <circle cx="30" cy="70" r="1" fill="#E8A850" opacity="0.35"/>
</svg>