<svg xmlns="http://www.w3.org/2000/svg" width="200" height="200" viewBox="0 0 200 200">
  <circle cx="100" cy="100" r="86" fill="#FFF9F2" stroke="#E8DCC8" stroke-width="1.5"/>
  <ellipse cx="100" cy="158" rx="24" ry="4.5" fill="none" stroke="#5C3D2E" stroke-width="2.5"/>
  <line x1="100" y1="152" x2="100" y2="94" stroke="#5C3D2E" stroke-width="2.5" stroke-linecap="round"/>
  <line x1="44" y1="94" x2="156" y2="94" stroke="#5C3D2E" stroke-width="3" stroke-linecap="round"/>
  <circle cx="100" cy="94" r="3.5" fill="#E8A850"/>
  <path d="M34 94l-8 20c-2 5 5 10 10 6l8-5" fill="none" stroke="#5C3D2E" stroke-width="2"/>
  <ellipse cx="40" cy="112" rx="14" ry="3.5" fill="none" stroke="#5C3D2E" stroke-width="1.8"/>
  <path d="M30 110c2-4 18-4 20 1" fill="#FFF9F2" stroke="#C8853E" stroke-width="1.2"/>
  <path d="M166 94l8 20c2 5-5 10-10 6l-8-5" fill="none" stroke="#5C3D2E" stroke-width="2"/>
  <ellipse cx="160" cy="112" rx="14" ry="3.5" fill="none" stroke="#5C3D2E" stroke-width="1.8"/>
  <rect x="150" y="104" width="18" height="11" rx="2.5" fill="none" stroke="#5C3D2E" stroke-width="2"/>
  <text x="159" y="112" text-anchor="middle" font-size="6" font-weight="700" fill="#C8853E" font-family="Inter,sans-serif">200g</text>
  <circle cx="24" cy="76" r="1.8" fill="#E8A850" opacity="0.4"/>
  <circle cx="30" cy="68" r="1.2" fill="#E8A850" opacity="0.3"/>
  <circle cx="20" cy="82" r="0.9" fill="#E8A850" opacity="0.35"/>
</svg>