<svg xmlns="http://www.w3.org/2000/svg" width="200" height="200" viewBox="0 0 200 200">
  <circle cx="100" cy="100" r="86" fill="#FFF9F2" stroke="#E8DCC8" stroke-width="1.5"/>
  <!-- Base --><ellipse cx="100" cy="156" rx="26" ry="5" fill="none" stroke="#5C3D2E" stroke-width="2.5"/>
  <!-- Pillar --><line x1="100" y1="150" x2="100" y2="94" stroke="#5C3D2E" stroke-width="2.5" stroke-linecap="round"/>
  <!-- Beam --><line x1="46" y1="94" x2="154" y2="94" stroke="#5C3D2E" stroke-width="3" stroke-linecap="round"/>
  <!-- Fulcrum --><circle cx="100" cy="94" r="3.5" fill="#E8A850"/>
  <!-- Left pan --><path d="M36 94l-7 22c-2 4 5 8 8 5l7-5" fill="none" stroke="#5C3D2E" stroke-width="2"/>
  <ellipse cx="40" cy="114" rx="14" ry="4" fill="none" stroke="#5C3D2E" stroke-width="1.8"/>
  <path d="M30 112c2-3 18-3 20 1" fill="#FFF9F2" stroke="#C8853E" stroke-width="1.2"/>
  <!-- Right pan --><path d="M164 94l7 22c2 4-5 8-8 5l-7-5" fill="none" stroke="#5C3D2E" stroke-width="2"/>
  <ellipse cx="160" cy="114" rx="14" ry="4" fill="none" stroke="#5C3D2E" stroke-width="1.8"/>
  <!-- Weight block --><rect x="150" y="104" width="18" height="12" rx="2" fill="none" stroke="#5C3D2E" stroke-width="2"/>
  <text x="159" y="112" text-anchor="middle" font-size="6" font-weight="700" fill="#C8853E" font-family="Inter,sans-serif">200g</text>
  <!-- Dust --><circle cx="26" cy="78" r="1.5" fill="#E8A850" opacity="0.45"/>
  <circle cx="32" cy="72" r="1" fill="#E8A850" opacity="0.3"/>
</svg>