<svg xmlns="http://www.w3.org/2000/svg" width="200" height="200" viewBox="0 0 200 200">
  <circle cx="100" cy="100" r="88" fill="#FFF9F2" stroke="#E8DCC8" stroke-width="1.5"/>
  <rect x="52" y="88" width="96" height="72" rx="6" fill="none" stroke="#5C3D2E" stroke-width="2.5"/>
  <path d="M44 88c0-14 24-26 56-26s56 12 56 26" fill="none" stroke="#5C3D2E" stroke-width="2.5"/>
  <line x1="100" y1="62" x2="100" y2="160" stroke="#E8A850" stroke-width="2.5" stroke-linecap="round"/>
  <line x1="52" y1="118" x2="148" y2="118" stroke="#E8A850" stroke-width="2.5" stroke-linecap="round"/>
  <path d="M100 62c-6-8-14-12-18-10s-6 8-2 12" fill="none" stroke="#E8A850" stroke-width="2" stroke-linecap="round"/>
  <path d="M100 62c6-8 14-12 18-10s6 8 2 12" fill="none" stroke="#E8A850" stroke-width="2" stroke-linecap="round"/>
  <circle cx="100" cy="62" r="5" fill="none" stroke="#C8853E" stroke-width="2"/>
  <circle cx="150" cy="140" r="14" fill="none" stroke="#5C3D2E" stroke-width="1.5" opacity="0.4"/>
  <text x="150" y="137" text-anchor="middle" font-size="5.5" font-weight="700" fill="#C8853E" opacity="0.6" font-family="Inter,sans-serif">HAND</text>
  <text x="150" y="145" text-anchor="middle" font-size="5.5" font-weight="700" fill="#C8853E" opacity="0.6" font-family="Inter,sans-serif">MADE</text>
</svg>