<svg xmlns="http://www.w3.org/2000/svg" width="200" height="200" viewBox="0 0 200 200">
  <circle cx="100" cy="100" r="86" fill="#FFF9F2" stroke="#E8DCC8" stroke-width="1.5"/>
  <!-- Box body --><rect x="50" y="86" width="100" height="74" rx="6" fill="none" stroke="#5C3D2E" stroke-width="2.5"/>
  <!-- Lid --><path d="M42 86c0-14 26-26 58-26s58 12 58 26" fill="none" stroke="#5C3D2E" stroke-width="2.5"/>
  <!-- Ribbon vertical --><line x1="100" y1="60" x2="100" y2="160" stroke="#E8A850" stroke-width="2.5" stroke-linecap="round"/>
  <!-- Ribbon horizontal --><line x1="50" y1="118" x2="150" y2="118" stroke="#E8A850" stroke-width="2.5" stroke-linecap="round"/>
  <!-- Bow --><path d="M100 60c-5-7-12-10-16-8s-5 7-2 10" fill="none" stroke="#E8A850" stroke-width="2" stroke-linecap="round"/>
  <path d="M100 60c5-7 12-10 16-8s5 7 2 10" fill="none" stroke="#E8A850" stroke-width="2" stroke-linecap="round"/>
  <circle cx="100" cy="60" r="4" fill="#C8853E"/>
  <!-- Stamp --><circle cx="148" cy="144" r="13" fill="none" stroke="#5C3D2E" stroke-width="1" opacity="0.3"/>
  <text x="148" y="142" text-anchor="middle" font-size="4.5" font-weight="700" fill="#C8853E" opacity="0.5" font-family="Inter,sans-serif">HAND</text>
  <text x="148" y="149" text-anchor="middle" font-size="4.5" font-weight="700" fill="#C8853E" opacity="0.5" font-family="Inter,sans-serif">MADE</text>
</svg>