<svg xmlns="http://www.w3.org/2000/svg" width="200" height="200" viewBox="0 0 200 200">
  <defs>
    <radialGradient id="glow"><stop offset="0%" stop-color="#E8A850" stop-opacity="0.9"/><stop offset="50%" stop-color="#F5D5A0" stop-opacity="0.3"/><stop offset="100%" stop-color="#FFF9F2" stop-opacity="0"/></radialGradient>
    <radialGradient id="cookie"><stop offset="0%" stop-color="#E8B860"/><stop offset="60%" stop-color="#C8843C"/><stop offset="100%" stop-color="#A86828"/></radialGradient>
    <linearGradient id="wood"><stop offset="0%" stop-color="#6B3A20"/><stop offset="100%" stop-color="#4A2510"/></linearGradient>
    <linearGradient id="metal"><stop offset="0%" stop-color="#D8D0C0"/><stop offset="100%" stop-color="#B0A898"/></linearGradient>
    <radialGradient id="warm"><stop offset="0%" stop-color="#FDF3E2" stop-opacity="0.6"/><stop offset="100%" stop-color="#FFF9F2" stop-opacity="0"/></radialGradient>
  </defs>
  <rect x="0" y="0" width="200" height="200" rx="100" fill="#FFF9F2"/>
  <ellipse cx="106" cy="166" rx="38" ry="8" fill="#E8DCC8" stroke="#C8853E" stroke-width="1.2" opacity="0.5"/>
  <ellipse cx="106" cy="164" rx="32" ry="6" fill="#F0E8DB"/>
  <path d="M78 100c0-16 12-28 28-28s28 12 28 26v40c0 6-4 10-10 10H88c-5 0-10-4-10-10z" fill="#FFF9F2" stroke="#5C3D2E" stroke-width="2.5"/>
  <ellipse cx="106" cy="100" rx="26" ry="6" fill="#3C2415" opacity="0.8"/><ellipse cx="106" cy="100" rx="24" ry="5" fill="#3A1E0A"/>
  <path d="M134 116c10 0 16-4 16-9s-6-9-16-9" fill="none" stroke="#5C3D2E" stroke-width="2.5" stroke-linecap="round"/>
  <path d="M92 86c-1-8 2-14 5-18" fill="none" stroke="#E8A850" stroke-width="1.5" stroke-linecap="round" opacity="0.5"/>
  <path d="M106 78c0-7 2-12 4-16" fill="none" stroke="#E8A850" stroke-width="1.8" stroke-linecap="round" opacity="0.55"/>
  <path d="M120 86c1-8-2-14-5-18" fill="none" stroke="#E8A850" stroke-width="1.5" stroke-linecap="round" opacity="0.5"/>
  <circle cx="52" cy="114" r="22" fill="url(#cookie)"/><circle cx="52" cy="114" r="22" fill="none" stroke="#D4954B" stroke-width="1" opacity="0.4"/>
  <ellipse cx="44" cy="108" rx="3.5" ry="5" fill="#3C2415" transform="rotate(-15 44 108)"/>
  <ellipse cx="62" cy="106" rx="3" ry="4.5" fill="#3C2415" transform="rotate(20 62 106)"/>
  <ellipse cx="54" cy="124" rx="3.5" ry="4.5" fill="#3C2415" transform="rotate(-8 54 124)"/>
  <circle cx="36" cy="120" r="6" fill="#FFF9F2"/>
  <circle cx="38" cy="126" r="1.5" fill="#D4954B" opacity="0.4"/>
</svg>