<svg xmlns="http://www.w3.org/2000/svg" width="200" height="200" viewBox="0 0 200 200">
  <defs>
    <radialGradient id="glow"><stop offset="0%" stop-color="#E8A850" stop-opacity="0.9"/><stop offset="50%" stop-color="#F5D5A0" stop-opacity="0.3"/><stop offset="100%" stop-color="#FFF9F2" stop-opacity="0"/></radialGradient>
    <radialGradient id="cookie"><stop offset="0%" stop-color="#E8B860"/><stop offset="60%" stop-color="#C8843C"/><stop offset="100%" stop-color="#A86828"/></radialGradient>
    <linearGradient id="wood"><stop offset="0%" stop-color="#6B3A20"/><stop offset="100%" stop-color="#4A2510"/></linearGradient>
    <linearGradient id="metal"><stop offset="0%" stop-color="#D8D0C0"/><stop offset="100%" stop-color="#B0A898"/></linearGradient>
    <radialGradient id="warm"><stop offset="0%" stop-color="#FDF3E2" stop-opacity="0.6"/><stop offset="100%" stop-color="#FFF9F2" stop-opacity="0"/></radialGradient>
  </defs>
  <rect x="0" y="0" width="200" height="200" rx="100" fill="#FFF9F2"/>
  <rect x="40" y="80" width="120" height="84" rx="7" fill="#D4B896" stroke="#8B6F5C" stroke-width="2"/>
  <path d="M40 80l32-22h56l32 22" fill="none" stroke="#8B6F5C" stroke-width="2"/>
  <rect x="58" y="68" width="58" height="7" rx="2" fill="#E8DCC8" opacity="0.6"/>
  <rect x="54" y="100" width="52" height="40" rx="3" fill="#FFF9F2" stroke="#C8853E" stroke-width="1.5"/>
  <line x1="60" y1="108" x2="100" y2="108" stroke="#C8853E" stroke-width="0.8" opacity="0.5"/>
  <line x1="60" y1="114" x2="98" y2="114" stroke="#C8853E" stroke-width="0.6" opacity="0.4"/>
  <line x1="60" y1="120" x2="100" y2="120" stroke="#C8853E" stroke-width="0.8" opacity="0.5"/>
  <line x1="60" y1="126" x2="96" y2="126" stroke="#C8853E" stroke-width="0.6" opacity="0.4"/>
  <line x1="60" y1="132" x2="100" y2="132" stroke="#C8853E" stroke-width="0.8" opacity="0.5"/>
  <rect x="116" y="104" width="38" height="22" rx="4" fill="#E8A850" stroke="#D4954B" stroke-width="1.5"/>
  <text x="135" y="118" text-anchor="middle" font-size="7.5" font-weight="800" fill="#FFF9F2" font-family="Inter,sans-serif">SAME</text>
  <text x="135" y="126" text-anchor="middle" font-size="5.5" font-weight="700" fill="#3C2415" font-family="Inter,sans-serif">DAY</text>
  <circle cx="150" cy="150" r="15" fill="#FFF9F2" stroke="#5C3D2E" stroke-width="2"/>
  <line x1="150" y1="150" x2="150" y2="140" stroke="#5C3D2E" stroke-width="2.5" stroke-linecap="round"/>
  <line x1="150" y1="150" x2="160" y2="152" stroke="#5C3D2E" stroke-width="2" stroke-linecap="round"/>
  <text x="150" y="157" text-anchor="middle" font-size="5" font-weight="700" fill="#C8853E" font-family="Inter,sans-serif">4PM</text>
  <line x1="18" y1="110" x2="34" y2="110" stroke="#E8A850" stroke-width="1.5" stroke-linecap="round" opacity="0.4"/>
  <line x1="14" y1="120" x2="34" y2="120" stroke="#E8A850" stroke-width="1.5" stroke-linecap="round" opacity="0.3"/>
  <line x1="18" y1="130" x2="34" y2="130" stroke="#E8A850" stroke-width="1.5" stroke-linecap="round" opacity="0.25"/>
</svg>