<svg xmlns="http://www.w3.org/2000/svg" width="200" height="200" viewBox="0 0 200 200">
  <defs>
    <radialGradient id="glow"><stop offset="0%" stop-color="#E8A850" stop-opacity="0.9"/><stop offset="50%" stop-color="#F5D5A0" stop-opacity="0.3"/><stop offset="100%" stop-color="#FFF9F2" stop-opacity="0"/></radialGradient>
    <radialGradient id="cookie"><stop offset="0%" stop-color="#E8B860"/><stop offset="60%" stop-color="#C8843C"/><stop offset="100%" stop-color="#A86828"/></radialGradient>
    <linearGradient id="wood"><stop offset="0%" stop-color="#6B3A20"/><stop offset="100%" stop-color="#4A2510"/></linearGradient>
    <linearGradient id="metal"><stop offset="0%" stop-color="#D8D0C0"/><stop offset="100%" stop-color="#B0A898"/></linearGradient>
    <radialGradient id="warm"><stop offset="0%" stop-color="#FDF3E2" stop-opacity="0.6"/><stop offset="100%" stop-color="#FFF9F2" stop-opacity="0"/></radialGradient>
  </defs>
  <rect x="0" y="0" width="200" height="200" rx="100" fill="#FFF9F2"/>
  <rect x="0" y="0" width="200" height="200" rx="100" fill="url(#warm)"/>
  <ellipse cx="100" cy="160" rx="32" ry="7" fill="url(#wood)"/>
  <ellipse cx="100" cy="158" rx="30" ry="5" fill="#5C3D2E"/>
  <rect x="94" y="100" width="12" height="58" rx="4" fill="url(#wood)"/>
  <rect x="96" y="98" width="8" height="8" rx="3" fill="#E8A850"/>
  <line x1="42" y1="98" x2="158" y2="98" stroke="#5C3D2E" stroke-width="3.5" stroke-linecap="round"/>
  <circle cx="100" cy="98" r="4" fill="#E8A850" stroke="#D4954B" stroke-width="1"/>
  <path d="M32 98l-8 22c-2 5 5 10 10 6l8-5" fill="none" stroke="#5C3D2E" stroke-width="2.5"/>
  <ellipse cx="38" cy="118" rx="16" ry="5" fill="#FFF9F2" stroke="#5C3D2E" stroke-width="2"/>
  <path d="M26 116c3-5 22-5 26 1" fill="#F5EDE3" stroke="#C8853E" stroke-width="1.5"/>
  <path d="M168 98l8 22c2 5-5 10-10 6l-8-5" fill="none" stroke="#5C3D2E" stroke-width="2.5"/>
  <ellipse cx="162" cy="118" rx="16" ry="5" fill="#FFF9F2" stroke="#5C3D2E" stroke-width="2"/>
  <rect x="152" y="109" width="20" height="13" rx="3" fill="#E8A850" stroke="#D4954B" stroke-width="1.5"/>
  <text x="162" y="118" text-anchor="middle" font-size="6.5" font-weight="800" fill="#FFF9F2" font-family="Inter,sans-serif">200g</text>
  <rect x="134" y="148" width="22" height="26" rx="4" fill="#FFF9F2" stroke="#C8853E" stroke-width="1.5"/>
  <rect x="136" y="148" width="3" height="8" rx="1.5" fill="#C8853E"/>
  <line x1="140" y1="156" x2="152" y2="156" stroke="#C8853E" stroke-width="1" opacity="0.6"/>
  <line x1="140" y1="162" x2="152" y2="162" stroke="#C8853E" stroke-width="1" opacity="0.6"/>
  <line x1="140" y1="168" x2="150" y2="168" stroke="#C8853E" stroke-width="1" opacity="0.6"/>
  <circle cx="22" cy="80" r="2" fill="#E8A850" opacity="0.4"/>
  <circle cx="28" cy="72" r="1.3" fill="#E8A850" opacity="0.3"/>
  <circle cx="18" cy="86" r="1" fill="#E8A850" opacity="0.35"/>
</svg>