<svg xmlns="http://www.w3.org/2000/svg" width="200" height="200" viewBox="0 0 200 200">
  <defs>
    <radialGradient id="glow"><stop offset="0%" stop-color="#E8A850" stop-opacity="0.9"/><stop offset="50%" stop-color="#F5D5A0" stop-opacity="0.3"/><stop offset="100%" stop-color="#FFF9F2" stop-opacity="0"/></radialGradient>
    <radialGradient id="cookie"><stop offset="0%" stop-color="#E8B860"/><stop offset="60%" stop-color="#C8843C"/><stop offset="100%" stop-color="#A86828"/></radialGradient>
    <linearGradient id="wood"><stop offset="0%" stop-color="#6B3A20"/><stop offset="100%" stop-color="#4A2510"/></linearGradient>
    <linearGradient id="metal"><stop offset="0%" stop-color="#D8D0C0"/><stop offset="100%" stop-color="#B0A898"/></linearGradient>
    <radialGradient id="warm"><stop offset="0%" stop-color="#FDF3E2" stop-opacity="0.6"/><stop offset="100%" stop-color="#FFF9F2" stop-opacity="0"/></radialGradient>
  </defs>
  <rect x="0" y="0" width="200" height="200" rx="100" fill="#FFF9F2"/>
  <circle cx="100" cy="82" r="40" fill="#FFF9F2" stroke="#5C3D2E" stroke-width="2.5"/>
  <ellipse cx="76" cy="98" rx="10" ry="6" fill="#E8A850" opacity="0.2"/>
  <ellipse cx="124" cy="98" rx="10" ry="6" fill="#E8A850" opacity="0.2"/>
  <path d="M78 72c5-6 14-6 19 0" fill="none" stroke="#5C3D2E" stroke-width="2.5" stroke-linecap="round"/>
  <path d="M103 72c5-6 14-6 19 0" fill="none" stroke="#5C3D2E" stroke-width="2.5" stroke-linecap="round"/>
  <circle cx="86" cy="70" r="1.5" fill="#FFF9F2" opacity="0.7"/><circle cx="114" cy="70" r="1.5" fill="#FFF9F2" opacity="0.7"/>
  <path d="M78 96c8 10 30 10 42 0" fill="none" stroke="#5C3D2E" stroke-width="2.5" stroke-linecap="round"/>
  <path d="M90 108c4 4 12 4 18 0" fill="#FFF9F2" stroke="#5C3D2E" stroke-width="1.5" stroke-linecap="round"/>
  <circle cx="146" cy="146" r="24" fill="url(#cookie)"/><circle cx="146" cy="146" r="24" fill="none" stroke="#D4954B" stroke-width="1" opacity="0.4"/>
  <ellipse cx="138" cy="140" rx="4" ry="5.5" fill="#3C2415" transform="rotate(-15 138 140)"/>
  <ellipse cx="156" cy="138" rx="3.5" ry="5" fill="#3C2415" transform="rotate(20 156 138)"/>
  <ellipse cx="148" cy="158" rx="4" ry="5" fill="#3C2415" transform="rotate(-8 148 158)"/>
  <ellipse cx="136" cy="152" rx="3" ry="4.5" fill="#3C2415" transform="rotate(-25 136 152)"/>
  <circle cx="168" cy="150" r="7" fill="#FFF9F2"/>
</svg>